# xmcd
#
# Track frame offsets: 
#        150
#        17095
#        30040
#        42850
#        56415
#        72122
#        84207
#        94420
#        104635
#        116110
#        131315
#        148012
#
# Disc length: 2154 seconds
#
# Revision: 3
# Processed by: cddbd v1.5.2PL0 Copyright (c) Steve Scherf et al.
# Submitted via: ExactAudioCopy v0.99pb5
#
DISCID=9708680c
DTITLE=Chad Rex And The Victorstands - Songs To Fix Angels
DYEAR=2001
DGENRE=Indie
TTITLE0=Tied Up To Die
TTITLE1=Breaking Down For The Third Time
TTITLE2=Hearsay Discovered
TTITLE3=Build A Rocket
TTITLE4=Parting Dress
TTITLE5=Edgar Bergan's Ghost
TTITLE6=Back To The Breakdown
TTITLE7=Blue Memory
TTITLE8=Desperate And Poisoned
TTITLE9=Sleep Through
TTITLE10=Dead Man Rising
TTITLE11=Loaded Up
EXTD=YEAR: 2001 ID3G: 2
EXTT0=
EXTT1=
EXTT2=
EXTT3=
EXTT4=
EXTT5=
EXTT6=
EXTT7=
EXTT8=
EXTT9=
EXTT10=
EXTT11=
PLAYORDER=
